M48
; DRILL file {KiCad (5.1.7-0-10_14)} date Wednesday, November 04, 2020 at 01:15:21 PM
; FORMAT={-:-/ absolute / inch / decimal}
; #@! TF.CreationDate,2020-11-04T13:15:21-08:00
; #@! TF.GenerationSoftware,Kicad,Pcbnew,(5.1.7-0-10_14)
FMAT,2
INCH
T1C0.0157
T2C0.0394
T3C0.0866
%
G90
G05
T1
X-0.7673Y0.0528
X-0.6366Y-0.4327
X-0.5456Y-0.4556
X-0.5331Y0.5453
X-0.4988Y-0.2717
X-0.461Y-0.6654
X-0.4161Y0.5897
X-0.4132Y-0.5884
X-0.3516Y-0.1421
X-0.3433Y0.7476
X-0.3122Y0.0256
X-0.2803Y-0.5382
X-0.2772Y0.5776
X-0.2693Y0.0626
X-0.2307Y-0.0362
X-0.2159Y-0.338
X-0.2067Y-0.7429
X-0.1965Y0.0185
X-0.1598Y-0.3791
X-0.1496Y0.8819
X-0.1336Y0.0719
X-0.0886Y0.0098
X-0.0882Y0.5571
X-0.0862Y0.8004
X-0.0843Y0.724
X-0.0823Y-0.1244
X-0.0425Y0.8876
X-0.0413Y0.5307
X-0.037Y-0.4047
X-0.0358Y-0.4854
X-0.0281Y0.6246
X-0.0264Y-0.0917
X0.0012Y-0.352
X0.0102Y0.5102
X0.0134Y-0.4854
X0.0165Y0.3409
X0.0197Y-0.2587
X0.0364Y0.6053
X0.0443Y0.8868
X0.0528Y0.2969
X0.0646Y0.7173
X0.065Y-0.4161
X0.0665Y-0.7854
X0.0681Y-0.3272
X0.0768Y-0.0409
X0.0803Y-0.1406
X0.0811Y-0.8413
X0.087Y0.5882
X0.0898Y0.0035
X0.0992Y-0.6276
X0.1094Y0.2984
X0.1311Y0.7
X0.1449Y0.5673
X0.1526Y0.8799
X0.1669Y0.0039
X0.1846Y0.4984
X0.1882Y0.6894
X0.2071Y-0.1358
X0.2126Y0.8039
X0.2161Y-0.3835
X0.2244Y-0.1976
X0.2354Y-0.2697
X0.2433Y0.6717
X0.2465Y-0.3307
X0.2543Y0.3992
X0.2673Y-0.1957
X0.2693Y-0.5157
X0.3169Y-0.3677
X0.3413Y-0.2815
X0.3457Y0.0319
X0.3559Y0.6189
X0.4146Y-0.0898
X0.4276Y0.1457
X0.4311Y0.5205
X0.4382Y-0.4201
X0.4622Y-0.5445
X0.4756Y-0.4524
X0.4882Y0.6717
X0.5236Y0.522
X0.5567Y-0.5378
X0.5602Y-0.2287
X0.5667Y0.6041
X0.5764Y-0.289
X0.5862Y0.2469
X0.6071Y0.1961
X0.6311Y0.4469
X0.6665Y0.2846
X0.6914Y0.33
X0.6944Y0.4535
X0.702Y-0.3177
X0.715Y0.0787
X0.7571Y-0.3496
X0.7633Y0.322
X0.7961Y0.0693
X0.8319Y-0.0831
T2
X-0.5583Y0.2591
X-0.5583Y0.1591
X-0.5583Y0.0591
X-0.5583Y-0.0409
T3
X0.0Y1.2402
T0
M30
